<?xml version="1.0" encoding="UTF-8"?>
<!DOCTYPE svg PUBLIC "-//W3C//DTD SVG 1.1//EN" "http://www.w3.org/Graphics/SVG/1.1/DTD/svg11.dtd">
<!-- Creator: CorelDRAW X7 -->
<svg xmlns="http://www.w3.org/2000/svg" xml:space="preserve" width="53.0777mm" height="14.3778mm" version="1.1" style="shape-rendering:geometricPrecision; text-rendering:geometricPrecision; image-rendering:optimizeQuality; fill-rule:evenodd; clip-rule:evenodd"
viewBox="0 0 5774 1564"
 xmlns:xlink="http://www.w3.org/1999/xlink">
 <defs>
  <style type="text/css">
   <![CDATA[
    .fil2 {fill:#663333}
    .fil1 {fill:gainsboro}
    .fil0 {fill:#663333;fill-rule:nonzero}
   ]]>
  </style>
 </defs>
 <g id="Слой_x0020_1">
  <metadata id="CorelCorpID_0Corel-Layer"/>
  <g id="_774106720">
   <path class="fil0" d="M1985 17l352 0c32,0 52,-1 61,-2 9,-2 14,-4 15,-7 1,-2 5,-5 12,-6 8,-1 27,-2 57,-2 11,0 19,4 24,11 6,7 9,16 9,28 0,4 -1,8 -2,14 -2,5 -5,12 -8,20 -4,8 -7,16 -9,22 -9,23 -14,47 -16,70 -3,23 -5,40 -8,50 -3,9 -11,14 -23,14 -10,0 -17,-3 -20,-9 -4,-6 -8,-17 -12,-32 -10,-38 -22,-66 -36,-85 -15,-19 -30,-31 -45,-37 -16,-5 -34,-8 -54,-8l-25 0 -37 0 0 248c22,20 54,39 97,54 43,16 82,24 117,24 6,0 20,-1 40,-3 24,0 40,5 50,13 9,8 14,25 14,52l0 192c0,17 -1,31 -4,40 -2,9 -8,16 -16,21 -9,5 -23,8 -43,8l-490 0 0 -42 82 0 0 -607 -82 0 0 -41zm235 648l121 0c17,0 28,-4 34,-12 7,-8 10,-26 10,-54l0 -111c0,-15 -2,-25 -7,-32 -4,-7 -16,-15 -36,-26 -34,-19 -59,-34 -75,-44 -15,-11 -31,-25 -47,-43l0 322zm812 -373l26 31c-36,23 -66,35 -92,35 -27,0 -56,-17 -86,-52 -11,-12 -20,-22 -26,-28 -7,-5 -15,-8 -25,-8 -30,0 -50,19 -60,57 -9,39 -15,87 -16,145 16,-12 37,-25 65,-37 27,-13 49,-19 66,-19 13,0 25,2 36,6 12,4 25,11 39,19 13,8 23,12 29,12 13,0 26,-5 37,-15l20 26c-16,19 -34,35 -54,50 -11,8 -19,14 -26,17 -6,3 -15,5 -26,5 -14,0 -29,-5 -46,-17 -17,-11 -30,-19 -40,-23 -10,-5 -21,-7 -33,-7 -22,0 -44,9 -66,29 0,51 12,93 37,127 25,33 58,50 100,50 38,0 80,-17 128,-51l18 20c-47,51 -106,76 -177,76 -35,0 -70,-6 -106,-19 -36,-13 -68,-37 -95,-72 -27,-35 -41,-83 -44,-142l0 -34c2,-33 10,-69 26,-105 15,-37 38,-69 70,-95 31,-26 69,-39 115,-39 46,0 96,17 148,50 16,11 28,16 36,16 9,0 16,-2 22,-8zm181 344c0,3 2,14 4,33 6,45 9,98 9,158 0,50 -6,84 -17,104 -10,19 -26,29 -45,29 -14,0 -21,-4 -23,-10l0 -6c1,-13 1,-40 1,-81 0,-45 -2,-89 -5,-132 -2,-26 -5,-57 -9,-93 -3,-36 -6,-62 -7,-80 -1,-18 -2,-38 -2,-59 0,-55 12,-103 34,-146 23,-44 49,-78 80,-102 30,-24 54,-37 72,-37 15,0 33,9 53,25 21,17 40,39 59,68 19,29 34,62 46,99 12,38 18,76 18,116 0,39 -5,73 -17,103 -12,31 -29,54 -50,71 -21,17 -45,26 -71,26 -24,0 -49,-9 -73,-26 -25,-17 -44,-37 -57,-60zm28 -329c-16,23 -26,46 -33,69 -6,23 -9,51 -9,84 0,39 7,74 21,105 13,31 30,54 49,71 20,17 38,25 54,25 12,0 23,-5 34,-16 10,-11 17,-31 19,-60l0 -36c-2,-25 -9,-54 -21,-88 -13,-34 -28,-65 -48,-93 -20,-29 -42,-49 -66,-61zm748 -15l25 31c-35,23 -66,35 -91,35 -28,0 -56,-17 -86,-52 -11,-12 -20,-22 -27,-28 -7,-5 -15,-8 -25,-8 -30,0 -50,19 -59,57 -10,39 -15,87 -17,145 16,-12 38,-25 65,-37 28,-13 50,-19 67,-19 12,0 24,2 35,6 13,4 26,11 39,19 13,8 23,12 29,12 14,0 26,-5 38,-15l20 26c-16,19 -35,35 -55,50 -10,8 -19,14 -25,17 -7,3 -15,5 -26,5 -14,0 -30,-5 -46,-17 -17,-11 -30,-19 -40,-23 -10,-5 -21,-7 -33,-7 -23,0 -45,9 -67,29 0,51 13,93 37,127 25,33 58,50 101,50 37,0 79,-17 127,-51l19 20c-47,51 -106,76 -178,76 -34,0 -69,-6 -105,-19 -37,-13 -68,-37 -95,-72 -27,-35 -42,-83 -45,-142l0 -34c2,-33 11,-69 26,-105 15,-37 39,-69 70,-95 31,-26 70,-39 115,-39 47,0 96,17 149,50 15,11 27,16 36,16 8,0 16,-2 22,-8zm278 -11l-59 0c-8,51 -12,104 -12,159 0,43 1,78 4,106 2,28 5,55 8,81 3,25 5,43 5,51 0,11 -2,18 -7,22 -4,5 -15,7 -33,7l-59 0c-9,0 -16,-3 -21,-8 -4,-5 -8,-16 -10,-32 -3,-17 -4,-42 -5,-76 -1,-34 -1,-83 -1,-147 0,-61 1,-105 3,-133 2,-27 6,-45 11,-52 5,-8 13,-12 23,-12 19,0 32,1 42,2 14,1 37,1 70,1 46,0 106,-2 179,-5 14,0 26,1 34,3 8,3 12,8 12,18 0,9 -6,24 -17,43 -7,14 -13,27 -19,39 -6,13 -12,27 -17,42 -3,13 -7,23 -9,30l-42 -4c4,-24 6,-41 6,-51 0,-26 -5,-47 -16,-62 -10,-14 -33,-22 -70,-22zm-1984 1088l33 25c-22,47 -49,87 -81,120 -31,34 -57,50 -77,50 -15,0 -32,-8 -52,-26 -19,-17 -38,-40 -56,-68 -19,-28 -33,-58 -45,-90 -11,-31 -17,-60 -17,-87 0,-37 10,-76 29,-116 18,-40 41,-73 67,-100 26,-26 47,-40 64,-40 5,0 17,3 34,10 18,7 37,15 56,24 19,9 35,20 48,30 14,10 21,20 21,28 0,6 -9,19 -28,38 -12,13 -20,22 -23,27 -4,6 -8,12 -11,18 -4,7 -7,10 -9,10 -3,0 -10,-8 -21,-22 -13,-17 -28,-32 -45,-45 -17,-13 -41,-23 -71,-29 -12,23 -17,52 -17,86 0,30 7,61 20,94 14,32 32,61 54,86 23,25 46,42 71,52 15,-16 29,-34 42,-55 1,-1 3,-4 6,-8 2,-4 5,-8 8,-12zm412 -263l-149 0c-10,56 -15,109 -15,159 0,75 5,154 16,237 0,10 -3,18 -7,22 -4,4 -15,7 -33,7l-57 0c-10,0 -17,-3 -21,-7 -5,-4 -8,-14 -11,-30 -3,-16 -4,-41 -5,-74 -1,-34 -2,-84 -2,-151 0,-61 2,-104 4,-132 3,-27 7,-44 12,-52 5,-8 13,-12 23,-12l314 0c8,0 14,-1 18,-1 4,-1 9,-1 16,-1 15,0 23,5 23,17 0,6 -2,21 -6,45 -6,43 -10,87 -10,132 0,34 1,69 3,103 1,35 5,79 12,134 0,10 -2,18 -6,22 -5,4 -16,7 -34,7l-57 0c-9,0 -17,-3 -21,-7 -4,-5 -8,-15 -10,-31 -2,-16 -4,-41 -5,-75 -1,-34 -1,-84 -1,-149 0,-62 3,-116 9,-163zm412 -33l101 0c6,0 10,2 12,6 0,3 0,7 1,11 0,4 0,9 1,14 1,6 3,12 4,21 3,9 6,17 8,26 3,9 5,19 7,30 2,6 5,16 8,30 20,81 37,142 50,182 14,41 25,71 33,91 9,20 13,33 13,38 0,6 -6,9 -20,9l-100 0c-5,0 -9,-6 -11,-16 -2,-11 -6,-28 -13,-52 -3,-7 -7,-20 -12,-37 -3,-14 -7,-29 -13,-44 -32,106 -84,159 -156,159 -26,0 -46,-6 -62,-20 -16,-14 -27,-31 -34,-50 -6,-20 -9,-39 -9,-58 0,-17 4,-35 13,-55 8,-19 19,-39 33,-58 13,-19 25,-34 34,-45 9,-11 23,-27 43,-49 9,-11 19,-22 30,-33 12,-12 19,-20 23,-26 4,-5 6,-10 6,-15 0,-8 -2,-19 -7,-34 -2,-6 -3,-13 -3,-19 0,-4 7,-6 20,-6zm8 96c-38,42 -64,78 -78,109 -14,31 -21,55 -21,72 0,17 5,32 15,46 9,14 24,21 43,21 18,0 33,-4 46,-13 13,-9 22,-20 29,-32 6,-13 10,-24 10,-35 0,-11 -6,-35 -16,-72 -7,-20 -11,-35 -13,-43 -4,-17 -9,-35 -15,-53zm588 200l33 25c-22,47 -49,87 -80,120 -32,34 -58,50 -78,50 -15,0 -32,-8 -52,-26 -19,-17 -38,-40 -56,-68 -18,-28 -33,-58 -45,-90 -11,-31 -17,-60 -17,-87 0,-37 10,-76 29,-116 19,-40 41,-73 67,-100 26,-26 47,-40 64,-40 6,0 17,3 35,10 17,7 36,15 55,24 19,9 35,20 49,30 13,10 20,20 20,28 0,6 -9,19 -28,38 -12,13 -19,22 -23,27 -4,6 -8,12 -11,18 -4,7 -7,10 -9,10 -3,0 -10,-8 -21,-22 -13,-17 -28,-32 -45,-45 -17,-13 -40,-23 -71,-29 -11,23 -17,52 -17,86 0,30 7,61 20,94 14,32 32,61 55,86 22,25 46,42 70,52 15,-16 29,-34 42,-55 2,-1 3,-4 6,-8 2,-4 5,-8 8,-12zm530 -253l26 31c-35,23 -66,34 -92,34 -27,0 -56,-17 -86,-51 -11,-13 -20,-22 -26,-28 -7,-6 -15,-9 -25,-9 -30,0 -50,20 -60,58 -9,39 -15,87 -16,145 16,-13 37,-25 65,-38 27,-12 49,-18 66,-18 13,0 25,2 36,5 12,5 25,11 39,20 13,8 23,12 29,12 14,0 26,-5 38,-16l19 27c-16,18 -34,35 -54,50 -11,8 -19,14 -25,17 -7,3 -15,5 -26,5 -15,0 -30,-6 -47,-17 -16,-11 -30,-19 -40,-24 -10,-4 -21,-6 -33,-6 -22,0 -44,9 -66,28 0,51 12,94 37,127 25,34 58,51 100,51 38,0 80,-17 128,-52l18 21c-46,51 -106,76 -177,76 -34,0 -70,-6 -106,-19 -36,-14 -68,-38 -94,-73 -27,-35 -42,-82 -45,-142l0 -33c2,-34 10,-69 26,-106 15,-36 38,-68 70,-94 31,-26 69,-39 115,-39 46,0 96,16 148,49 16,11 28,17 37,17 8,0 15,-3 21,-8zm365 192l-159 -86 0 61c0,56 2,102 7,140 4,37 7,64 7,79 0,11 -3,19 -8,23 -6,4 -20,6 -45,6l-46 0c-9,0 -15,-3 -20,-9 -4,-6 -7,-18 -9,-36 -3,-17 -4,-43 -5,-76 0,-33 -1,-80 -1,-142 0,-63 1,-108 3,-135 3,-28 6,-45 10,-52 5,-7 12,-10 22,-10 3,0 8,0 15,1 7,0 12,1 14,1 10,0 25,-1 45,-3l11 0c8,1 13,6 13,16 0,19 -2,32 -5,39 -2,6 -4,25 -6,56l157 87 0 -43c0,-47 1,-81 4,-103 3,-22 7,-36 12,-42 5,-6 12,-9 21,-9 3,0 8,0 14,1 6,0 11,1 16,1 20,0 35,-1 45,-3l11 0c8,1 13,6 13,16 0,4 -1,11 -4,21 -2,10 -4,22 -6,36 -5,34 -7,74 -7,121 0,44 1,80 3,107 2,28 5,54 8,78 3,25 5,43 5,53 0,11 -3,19 -8,23 -6,4 -20,6 -44,6l-46 0c-10,0 -17,-3 -21,-7 -5,-5 -8,-14 -10,-28 -2,-13 -3,-32 -4,-55 -1,-23 -1,-68 -2,-133zm356 -44l168 -99c2,-36 4,-59 5,-68 1,-9 3,-15 7,-19 4,-4 11,-5 21,-5l86 0c9,0 13,5 13,15 0,4 -2,18 -5,41 -8,46 -12,91 -12,136 0,80 6,159 16,237 0,10 -2,18 -6,22 -4,4 -15,7 -33,7l-59 0c-9,0 -16,-4 -22,-11 -5,-7 -10,-22 -13,-45 -3,-22 -5,-56 -5,-101 0,-55 2,-112 5,-169l-166 100c2,68 7,134 16,197 0,10 -2,18 -7,22 -4,4 -15,7 -33,7l-58 0c-9,0 -16,-3 -20,-8 -5,-5 -8,-15 -9,-31 -1,-27 -2,-47 -4,-62 -3,-47 -4,-101 -4,-161 0,-44 0,-80 2,-108 2,-29 4,-49 7,-61 3,-12 6,-19 10,-23 4,-3 9,-4 16,-4l88 0c8,0 13,5 13,15 0,3 -2,17 -5,41 -8,50 -12,95 -12,135zm530 -191l248 0c7,0 14,-1 20,-1 6,0 9,0 10,0 8,0 12,5 12,16 0,10 -1,30 -4,60 -4,73 -7,141 -7,202 0,15 2,39 4,73 2,33 4,59 7,79l0 10c0,6 -3,11 -8,14 -6,3 -17,5 -34,5l-52 0c-12,0 -20,-4 -24,-10 -4,-6 -7,-16 -7,-29 -1,-13 -2,-48 -4,-105 0,-8 0,-16 -1,-23 0,-7 0,-13 -1,-19 0,-6 0,-12 0,-17 -1,-5 -1,-10 -1,-15 -90,20 -135,77 -135,171 0,19 -3,31 -9,37 -6,6 -22,10 -48,10l-39 0c-25,0 -40,-2 -47,-6 -6,-3 -9,-10 -9,-20 0,-16 5,-34 14,-56 9,-22 23,-44 42,-65 18,-22 41,-41 68,-56 26,-16 57,-26 90,-30l0 -5c-57,-11 -102,-28 -136,-50 -34,-23 -51,-55 -51,-99 0,-30 8,-50 24,-59 16,-8 42,-12 78,-12zm111 33c-23,0 -40,2 -51,5 -10,4 -17,8 -19,15 -3,7 -4,17 -4,31 0,33 12,61 35,84 24,22 53,33 88,33 0,-61 3,-117 8,-168l-57 0z"/>
   <polygon class="fil1" points="1586,1489 1586,1511 54,1511 54,99 324,56 709,366 869,259 1297,463 1297,805 1312,805 1500,923 "/>
   <path class="fil2" d="M0 1511c0,29 24,53 54,53l1640 0c30,0 54,-24 54,-53 0,-30 -24,-54 -54,-54l-59 0 -82 -542c-2,-15 -10,-28 -22,-37l-180 -123 0 -292c0,-21 -12,-40 -31,-49l-428 -203c-17,-8 -37,-7 -52,4l-128 85 -354 -285c-12,-10 -27,-14 -42,-12l-271 43c-26,4 -44,26 -45,52l0 2c0,2 0,5 1,7 4,30 32,49 61,45l247 -39 484 391c10,8 22,12 34,12 15,0 30,-7 41,-20 19,-22 15,-56 -8,-75l-61 -50 75 -50 370 175 0 769c0,29 24,53 53,53 30,0 54,-24 54,-53l0 -381 100 69 76 504 -1473 0c-30,0 -54,24 -54,54z"/>
  </g>
 </g>
</svg>
