<?xml version="1.0" encoding="UTF-8"?>
<!DOCTYPE svg PUBLIC "-//W3C//DTD SVG 1.1//EN" "http://www.w3.org/Graphics/SVG/1.1/DTD/svg11.dtd">
<!-- Creator: CorelDRAW X7 -->
<svg xmlns="http://www.w3.org/2000/svg" xml:space="preserve" width="53.0778mm" height="14.3772mm" version="1.1" style="shape-rendering:geometricPrecision; text-rendering:geometricPrecision; image-rendering:optimizeQuality; fill-rule:evenodd; clip-rule:evenodd"
viewBox="0 0 5308 1438"
 xmlns:xlink="http://www.w3.org/1999/xlink">
 <defs>
  <style type="text/css">
   <![CDATA[
    .fil2 {fill:#C5C6C6}
    .fil1 {fill:gainsboro}
    .fil0 {fill:#C5C6C6;fill-rule:nonzero}
   ]]>
  </style>
 </defs>
 <g id="Слой_x0020_1">
  <metadata id="CorelCorpID_0Corel-Layer"/>
  <path class="fil0" d="M1825 16l323 0c30,0 48,-1 56,-2 9,-2 13,-4 14,-7 1,-1 5,-4 11,-5 8,-1 25,-2 53,-2 10,0 17,4 22,10 5,7 8,15 8,26 0,4 -1,7 -2,13 -2,4 -5,11 -7,18 -4,7 -7,15 -9,20 -8,21 -12,44 -14,65 -3,21 -5,36 -8,46 -2,8 -10,13 -21,13 -9,0 -15,-3 -18,-9 -4,-5 -7,-15 -11,-29 -9,-35 -20,-61 -33,-78 -14,-18 -28,-29 -42,-34 -14,-5 -31,-8 -49,-8l-23 0 -34 0 0 228c20,19 49,36 89,50 39,15 75,22 107,22 6,0 19,-1 37,-3 22,0 37,5 46,12 8,8 13,23 13,48l0 176c0,16 -1,29 -4,37 -1,9 -7,15 -14,20 -9,4 -21,7 -40,7l-450 0 0 -39 75 0 0 -558 -75 0 0 -37 0 0zm216 595l111 0c16,0 26,-3 31,-11 7,-7 9,-24 9,-49l0 -102c0,-14 -1,-23 -6,-30 -4,-6 -15,-14 -33,-24 -31,-17 -54,-31 -69,-40 -14,-10 -29,-23 -43,-40l0 296 0 0zm746 -343l24 29c-33,21 -61,32 -84,32 -25,0 -52,-16 -80,-48 -10,-11 -18,-20 -23,-25 -7,-5 -14,-8 -23,-8 -28,0 -46,18 -56,53 -8,35 -13,80 -14,133 14,-11 34,-23 59,-34 25,-12 45,-18 61,-18 12,0 23,2 33,6 11,4 23,10 36,17 12,8 21,11 27,11 12,0 24,-4 34,-13l18 24c-15,17 -31,32 -50,46 -10,7 -17,12 -23,15 -6,3 -14,5 -24,5 -13,0 -27,-5 -43,-16 -15,-10 -27,-17 -36,-21 -10,-5 -20,-6 -31,-6 -20,0 -40,8 -60,26 0,47 11,86 34,117 23,30 53,46 92,46 34,0 73,-16 117,-47l17 18c-43,47 -98,70 -163,70 -32,0 -64,-5 -97,-17 -33,-12 -63,-34 -88,-66 -25,-33 -37,-77 -40,-131l0 -31c2,-31 9,-64 24,-97 14,-34 35,-63 64,-87 29,-24 64,-36 106,-36 42,0 88,16 136,46 15,10 26,15 33,15 8,0 15,-2 20,-8l0 0zm167 317c0,2 1,13 3,30 6,41 9,90 9,145 0,46 -6,77 -16,96 -9,17 -24,26 -41,26 -13,0 -20,-3 -22,-9l0 -5c1,-12 1,-37 1,-75 0,-41 -2,-81 -4,-121 -2,-24 -5,-52 -9,-86 -2,-33 -5,-57 -6,-73 -1,-17 -2,-35 -2,-54 0,-51 11,-95 31,-135 22,-40 45,-71 74,-93 28,-22 50,-34 66,-34 14,0 30,8 49,23 19,15 37,36 54,62 18,27 31,57 42,91 11,35 17,70 17,107 0,36 -5,67 -16,95 -11,28 -26,49 -46,65 -19,15 -41,24 -65,24 -22,0 -45,-9 -67,-24 -23,-16 -40,-34 -52,-55zm25 -303c-14,21 -24,42 -30,64 -6,21 -8,47 -8,77 0,36 6,68 19,96 12,29 28,50 45,66 18,15 35,23 50,23 11,0 21,-5 31,-15 9,-10 16,-29 17,-55l0 -33c-1,-23 -8,-50 -19,-81 -12,-31 -26,-60 -44,-86 -18,-26 -39,-45 -61,-56l0 0zm688 -14l23 29c-32,21 -61,32 -84,32 -26,0 -51,-16 -79,-48 -10,-11 -18,-20 -25,-25 -6,-5 -13,-8 -23,-8 -27,0 -46,18 -54,53 -9,35 -14,80 -15,133 14,-11 34,-23 59,-34 26,-12 46,-18 62,-18 11,0 22,2 32,6 12,4 24,10 36,17 12,8 21,11 27,11 12,0 23,-4 34,-13l19 24c-15,17 -32,32 -51,46 -9,7 -17,12 -23,15 -6,3 -13,5 -24,5 -12,0 -27,-5 -42,-16 -16,-10 -27,-17 -37,-21 -9,-5 -19,-6 -30,-6 -21,0 -41,8 -62,26 0,47 12,86 34,117 23,30 54,46 93,46 34,0 73,-16 117,-47l17 18c-43,47 -97,70 -163,70 -31,0 -64,-5 -97,-17 -34,-12 -62,-34 -87,-66 -25,-33 -39,-77 -41,-131l0 -31c1,-31 10,-64 24,-97 13,-34 35,-63 64,-87 28,-24 64,-36 106,-36 43,0 88,16 137,46 13,10 24,15 33,15 7,0 14,-2 20,-8l0 0zm255 -10l-54 0c-7,47 -11,96 -11,146 0,40 1,72 4,98 2,26 4,50 7,74 3,23 5,40 5,47 0,10 -2,17 -7,20 -3,5 -13,7 -30,7l-54 0c-8,0 -15,-3 -19,-7 -4,-5 -8,-15 -10,-30 -2,-16 -3,-38 -4,-70 -1,-31 -1,-76 -1,-135 0,-56 1,-96 3,-122 1,-25 5,-41 10,-48 4,-7 12,-11 21,-11 17,0 29,1 38,2 13,1 34,1 65,1 42,0 97,-2 164,-5 13,0 24,1 32,3 7,3 11,7 11,17 0,8 -6,22 -16,39 -6,13 -12,25 -18,36 -5,12 -11,25 -15,39 -3,11 -7,21 -8,27l-39 -4c4,-22 6,-37 6,-46 0,-24 -5,-44 -15,-57 -9,-13 -31,-21 -65,-21l0 0zm-1823 1000l30 23c-20,44 -45,80 -74,111 -29,31 -53,46 -71,46 -14,0 -30,-8 -48,-24 -18,-16 -35,-37 -52,-63 -17,-25 -30,-53 -41,-82 -10,-29 -16,-56 -16,-80 0,-34 10,-70 27,-107 17,-37 38,-67 62,-92 24,-24 43,-37 59,-37 4,0 15,3 31,9 16,7 34,14 51,23 18,8 32,18 44,27 13,9 20,18 20,26 0,5 -9,17 -26,35 -11,12 -18,20 -21,25 -4,5 -8,11 -10,16 -4,7 -7,9 -9,9 -2,0 -9,-7 -19,-20 -12,-16 -26,-29 -41,-41 -16,-12 -38,-21 -65,-27 -12,21 -16,48 -16,79 0,28 6,56 18,87 13,29 30,56 50,79 21,23 42,38 65,47 14,-14 27,-31 39,-50 1,-1 3,-4 5,-8 2,-3 5,-7 8,-11zm378 -241l-137 0c-9,51 -13,100 -13,146 0,69 4,141 14,218 0,9 -2,16 -6,20 -4,4 -14,6 -30,6l-53 0c-9,0 -15,-2 -19,-6 -5,-4 -7,-13 -10,-28 -3,-14 -4,-37 -5,-68 -1,-31 -2,-77 -2,-138 0,-57 2,-96 4,-122 3,-25 6,-40 11,-48 5,-7 12,-11 21,-11l289 0c7,0 13,-1 16,-1 4,0 9,0 15,0 14,0 21,4 21,15 0,6 -2,19 -5,42 -6,39 -9,79 -9,121 0,31 0,63 2,95 1,32 5,72 11,123 0,9 -2,16 -5,20 -5,4 -15,6 -31,6l-53 0c-8,0 -15,-2 -19,-6 -4,-5 -8,-14 -9,-29 -2,-14 -4,-37 -5,-69 -1,-31 -1,-77 -1,-136 0,-57 3,-107 8,-150l0 0zm379 -31l93 0c5,0 9,2 11,6 0,3 0,6 1,10 0,4 0,8 1,13 1,5 3,11 4,19 2,8 5,16 7,24 3,8 4,18 6,28 2,5 5,14 8,27 18,75 34,131 46,168 12,37 23,65 30,83 8,19 12,31 12,35 0,6 -6,8 -18,8l-92 0c-5,0 -9,-5 -11,-14 -1,-10 -5,-26 -11,-48 -3,-7 -7,-19 -12,-34 -2,-13 -6,-27 -11,-41 -30,98 -78,147 -144,147 -24,0 -42,-6 -57,-19 -15,-13 -25,-28 -31,-46 -6,-18 -8,-36 -8,-53 0,-16 3,-32 12,-51 7,-17 17,-36 30,-53 12,-17 23,-31 31,-41 8,-10 21,-25 40,-45 8,-11 17,-21 27,-31 11,-11 18,-18 21,-24 4,-4 6,-9 6,-13 0,-8 -2,-18 -6,-32 -2,-5 -3,-12 -3,-17 0,-4 6,-6 18,-6l0 0zm7 89c-34,38 -58,71 -71,100 -13,28 -20,50 -20,66 0,16 5,29 14,42 9,13 22,20 40,20 16,0 30,-4 42,-12 12,-9 20,-19 27,-30 5,-12 9,-22 9,-32 0,-10 -6,-32 -15,-66 -6,-19 -10,-32 -12,-40 -3,-15 -8,-32 -14,-48l0 0zm541 183l30 23c-20,44 -45,80 -73,111 -30,31 -54,46 -72,46 -14,0 -29,-8 -48,-24 -17,-16 -35,-37 -51,-63 -17,-25 -31,-53 -42,-82 -10,-29 -15,-56 -15,-80 0,-34 9,-70 26,-107 18,-37 38,-67 62,-92 24,-24 43,-37 59,-37 5,0 16,3 32,9 16,7 33,14 51,23 17,8 32,18 45,27 12,9 18,18 18,26 0,5 -8,17 -26,35 -11,12 -17,20 -21,25 -4,5 -7,11 -10,16 -4,7 -6,9 -8,9 -3,0 -9,-7 -20,-20 -11,-16 -25,-29 -41,-41 -16,-12 -37,-21 -65,-27 -10,21 -16,48 -16,79 0,28 7,56 19,87 12,29 29,56 50,79 20,23 42,38 65,47 13,-14 26,-31 38,-50 2,-1 3,-4 6,-8 1,-3 4,-7 7,-11l0 0zm487 -232l24 28c-32,22 -61,32 -84,32 -25,0 -52,-16 -80,-47 -10,-12 -18,-20 -23,-26 -7,-6 -14,-8 -23,-8 -28,0 -46,18 -56,53 -8,36 -13,80 -14,133 14,-12 34,-23 59,-35 25,-11 46,-16 61,-16 12,0 23,2 33,4 11,5 23,11 36,19 12,7 21,11 27,11 13,0 24,-5 35,-15l17 25c-15,17 -31,32 -49,46 -11,7 -18,13 -23,16 -7,2 -14,4 -24,4 -14,0 -28,-5 -44,-15 -14,-11 -27,-18 -36,-22 -10,-4 -20,-6 -31,-6 -20,0 -40,8 -60,26 0,47 11,86 34,116 23,32 53,47 92,47 35,0 73,-15 117,-47l17 19c-42,47 -98,70 -163,70 -31,0 -64,-6 -97,-18 -33,-13 -63,-35 -87,-67 -25,-32 -38,-75 -41,-130l0 -31c2,-31 9,-63 24,-97 14,-33 35,-63 64,-87 29,-23 64,-35 106,-35 42,0 88,14 136,45 15,10 26,15 34,15 7,0 14,-3 19,-7l0 0zm336 176l-146 -79 0 56c0,52 1,94 6,129 4,34 6,59 6,73 0,10 -2,17 -7,21 -5,4 -18,5 -41,5l-43 0c-8,0 -13,-2 -18,-8 -4,-5 -6,-16 -8,-33 -3,-16 -4,-40 -5,-70 0,-30 -1,-73 -1,-130 0,-58 1,-100 3,-124 3,-26 6,-42 9,-48 5,-7 11,-9 20,-9 3,0 8,0 14,0 7,0 11,1 13,1 9,0 23,-1 41,-2l11 0c7,1 11,5 11,14 0,18 -1,30 -4,36 -2,6 -4,23 -6,52l145 80 0 -40c0,-43 1,-74 3,-95 3,-20 7,-33 11,-38 5,-6 11,-8 20,-8 2,0 7,0 13,0 5,0 10,1 14,1 19,0 32,-1 42,-2l10 0c7,1 12,5 12,14 0,4 -1,10 -4,20 -2,9 -4,20 -5,33 -5,31 -7,68 -7,111 0,40 1,73 3,98 2,26 4,50 7,72 3,23 5,40 5,49 0,10 -3,17 -8,21 -5,4 -18,5 -40,5l-42 0c-9,0 -16,-2 -20,-6 -4,-5 -7,-13 -9,-26 -2,-12 -3,-29 -3,-50 -1,-21 -1,-63 -2,-123l0 0zm327 -40l154 -91c2,-33 4,-54 5,-63 1,-8 3,-13 6,-17 4,-4 11,-5 20,-5l79 0c8,0 12,5 12,14 0,4 -2,17 -5,38 -7,42 -11,83 -11,125 0,73 6,146 15,218 0,9 -2,16 -6,20 -3,4 -13,6 -30,6l-54 0c-9,0 -15,-3 -20,-10 -5,-6 -10,-20 -12,-41 -3,-20 -5,-52 -5,-93 0,-51 2,-103 5,-155l-153 92c2,62 6,123 15,181 0,9 -2,16 -7,20 -3,4 -14,6 -30,6l-53 0c-9,0 -15,-2 -19,-7 -4,-5 -7,-14 -8,-28 -1,-25 -2,-44 -4,-57 -3,-44 -3,-93 -3,-148 0,-41 0,-74 1,-100 2,-26 4,-45 7,-56 3,-11 5,-17 9,-21 4,-3 8,-4 15,-4l81 0c7,0 12,5 12,14 0,3 -2,16 -5,38 -7,46 -11,87 -11,124l0 0zm487 -176l228 0c7,0 13,-1 19,-1 5,0 8,0 9,0 7,0 11,5 11,15 0,9 -1,28 -4,55 -4,67 -6,130 -6,186 0,14 1,36 3,67 2,30 4,54 7,73l0 9c0,5 -3,10 -8,13 -5,3 -15,4 -31,4l-48 0c-11,0 -18,-3 -22,-9 -3,-5 -6,-15 -6,-26 -1,-12 -2,-45 -4,-97 0,-7 0,-15 -1,-21 0,-7 0,-12 -1,-18 0,-5 0,-11 0,-15 -1,-5 -1,-9 -1,-14 -82,18 -124,71 -124,157 0,18 -2,29 -8,34 -5,6 -20,9 -44,9l-36 0c-23,0 -37,-1 -43,-5 -6,-3 -8,-9 -8,-19 0,-14 4,-31 12,-51 9,-20 22,-40 39,-60 17,-20 38,-37 63,-51 24,-15 52,-24 82,-28l0 -4c-52,-11 -93,-26 -125,-46 -31,-22 -47,-51 -47,-91 0,-28 8,-46 23,-55 14,-7 38,-11 71,-11l0 0zm102 31c-21,0 -37,2 -47,4 -9,4 -15,8 -17,14 -3,7 -4,16 -4,29 0,30 11,56 32,77 22,20 49,30 81,30 0,-56 3,-107 8,-154l-53 0 0 0z"/>
  <polygon class="fil1" points="1458,1369 1458,1389 50,1389 50,91 298,51 652,336 799,238 1192,426 1192,740 1206,740 1379,848 "/>
  <path class="fil2" d="M0 1389c0,27 22,49 50,49l1507 0c28,0 50,-22 50,-49 0,-28 -22,-50 -50,-50l-54 0 -75 -498c-2,-14 -10,-26 -21,-34l-165 -113 0 -268c0,-20 -11,-37 -29,-45l-393 -187c-16,-7 -34,-6 -48,4l-117 78 -326 -262c-11,-9 -25,-13 -39,-11l-249 39c-24,4 -40,24 -41,48l0 2c0,2 0,5 1,6 4,28 29,45 56,42l227 -36 445 359c9,8 20,11 31,11 14,0 28,-6 38,-18 17,-20 14,-52 -7,-69l-57 -46 69 -46 341 161 0 707c0,27 22,49 48,49 28,0 50,-22 50,-49l0 -350 92 63 70 463 -1354 0c-28,0 -50,22 -50,50l0 0z"/>
 </g>
</svg>
